<svg id="settlement" xmlns="http://www.w3.org/2000/svg" width="24" height="24" viewBox="0 0 24 24">
  <defs>
    <style>
      .cls-1 {
        fill: none;
        fill-rule: evenodd;
      }

      .cls-2 {
        fill: #7e7e7e;
      }

      .cls-3 {
        fill: #b3b3b3;
      }
    </style>
  </defs>
  <path id="Path_1136" data-name="Path 1136" class="cls-1" d="M0,0H24V24H0Z"/>
  <path id="Path_1137" data-name="Path 1137" class="cls-2" d="M4.857,1h6.879a1.5,1.5,0,0,1,.969.355l4.764,4.029A1.5,1.5,0,0,1,18,6.529V19.083C18,20.874,17.98,21,16.143,21H4.857C3.02,21,3,20.874,3,19.083V2.917C3,1.126,3.02,1,4.857,1ZM8,12a1,1,0,0,0,0,2h7a1,1,0,0,0,0-2Zm0,4a1,1,0,0,0,0,2h3a1,1,0,0,0,0-2Z"/>
  <path id="Path_1138" data-name="Path 1138" class="cls-3" d="M6.857,3h7.879a1.5,1.5,0,0,1,.969.355l4.764,4.029A1.5,1.5,0,0,1,21,8.529V21.083C21,22.874,20.98,23,19.143,23H6.857C5.02,23,5,22.874,5,21.083V4.917C5,3.126,5.02,3,6.857,3ZM8,12a1,1,0,0,0,0,2h7a1,1,0,0,0,0-2Zm0,4a1,1,0,0,0,0,2h3a1,1,0,0,0,0-2Z"/>
</svg>
