<svg xmlns="http://www.w3.org/2000/svg" width="17.035" height="17" viewBox="0 0 17.035 17">
  <g id="Group_1917" data-name="Group 1917" transform="translate(-3.041 -4)">
    <path id="Path_1806" data-name="Path 1806" d="M16.017,9h-.623a3,3,0,0,0-2.651,1.6l-.589,1.113a.4.4,0,0,0,.1.5l.384.311A5,5,0,0,1,14.076,14.4l.156.357A.4.4,0,0,0,14.6,15h4.076a1.4,1.4,0,0,0,1.237-2.055L18.669,10.6A3,3,0,0,0,16.017,9Z" fill="#a5a6b2"/>
    <rect id="Rectangle_1063" data-name="Rectangle 1063" width="4" height="4" rx="2" transform="translate(14 4)" fill="#a5a6b2" opacity="0.3"/>
    <path id="Path_1807" data-name="Path 1807" d="M4.655,14.856a4.733,4.733,0,0,1,8.69,0l1.448,3.351A2,2,0,0,1,12.957,21H5.043a2,2,0,0,1-1.836-2.793Z" fill="#a5a6b2"/>
    <rect id="Rectangle_1064" data-name="Rectangle 1064" width="6" height="6" rx="3" transform="translate(6 5)" fill="#a5a6b2" opacity="0.3"/>
  </g>
</svg>
