<svg id="Group_1827" data-name="Group 1827" xmlns="http://www.w3.org/2000/svg" width="24" height="24" viewBox="0 0 24 24">
  <rect id="Rectangle_928" data-name="Rectangle 928" width="24" height="24" fill="none"/>
  <path id="Path_1749" data-name="Path 1749" d="M10,4H21a1,1,0,0,1,1,1V7a1,1,0,0,1-1,1H10A1,1,0,0,1,9,7V5A1,1,0,0,1,10,4Zm0,6H21a1,1,0,0,1,1,1v2a1,1,0,0,1-1,1H10a1,1,0,0,1-1-1V11A1,1,0,0,1,10,10Zm0,6H21a1,1,0,0,1,1,1v2a1,1,0,0,1-1,1H10a1,1,0,0,1-1-1V17A1,1,0,0,1,10,16Z" fill-rule="evenodd" opacity="0.3"/>
  <rect id="Rectangle_929" data-name="Rectangle 929" width="5" height="16" rx="1" transform="translate(2 4)" opacity="0.59"/>
</svg>
