<svg xmlns="http://www.w3.org/2000/svg" width="20" height="20" viewBox="0 0 20 20">
  <g id="Group_1920" data-name="Group 1920" transform="translate(-2 -2)">
    <path id="Path_1813" data-name="Path 1813" d="M2,4.632A2.632,2.632,0,0,1,4.632,2H13.47a.6.6,0,0,1,.408,1.04L12.456,4.358a3,3,0,0,1-2.039.8H7.158a2,2,0,0,0-2,2v9.684a2,2,0,0,0,2,2h9.684a2,2,0,0,0,2-2v-3.09a3,3,0,0,1,.939-2.18l1.207-1.141A.6.6,0,0,1,22,10.867v8.5A2.632,2.632,0,0,1,19.368,22H4.632A2.632,2.632,0,0,1,2,19.368Z" fill="#a5a6b2" fill-rule="evenodd" opacity="0.3"/>
    <path id="Path_1814" data-name="Path 1814" d="M10.926,11.188a1,1,0,0,1,0-1.414l7.141-7.141a2,2,0,0,1,2.828,0l.471.471a2,2,0,0,1,0,2.828l-7.141,7.141a1,1,0,0,1-1.414,0Z" fill="#a5a6b2"/>
    <path id="Path_1815" data-name="Path 1815" d="M8.823,12.006l-.735,2.328a1,1,0,0,0,1.105,1.289l2.7-.415a.7.7,0,0,0,.389-1.187l-2.3-2.3A.7.7,0,0,0,8.823,12.006Z" fill="#a5a6b2"/>
  </g>
</svg>
