<svg xmlns="http://www.w3.org/2000/svg" width="20.365" height="20.507" viewBox="0 0 20.365 20.507">
  <g id="Group_1929" data-name="Group 1929" transform="translate(-2 -2)">
    <path id="Path_1816" data-name="Path 1816" d="M8.4,20.507a2,2,0,0,1,0-4H9.9a3.5,3.5,0,1,0,0-7H8.1l-1.5,1.7a2.186,2.186,0,0,1-.5.3H9.8a1.5,1.5,0,0,1,0,3H8.4a4,4,0,1,0,0,8h7v-2Z" fill="#a5a6b2"/>
    <path id="Path_1817" data-name="Path 1817" d="M8.9,8.707l-2.2,2.5a1.088,1.088,0,0,1-1.5,0L3,8.707a4.078,4.078,0,0,1-.9-3.6,3.854,3.854,0,0,1,3-3,3.99,3.99,0,0,1,4.9,3.9A5.022,5.022,0,0,1,8.9,8.707Z" fill="#a5a6b2" opacity="0.3"/>
    <path id="Path_1818" data-name="Path 1818" d="M5.9,7.507a1.5,1.5,0,1,0-1.5-1.5A1.5,1.5,0,0,0,5.9,7.507Z" fill="#a5a6b2"/>
    <path id="Path_1819" data-name="Path 1819" d="M17.4,22.507h-2v-9a1,1,0,1,1,2,0Z" fill="#a5a6b2" opacity="0.3"/>
    <path id="Path_1820" data-name="Path 1820" d="M21.4,18.507h-6v-5h6a.906.906,0,0,1,.7,1.5l-.8,1,.8,1A.885.885,0,0,1,21.4,18.507Z" fill="#a5a6b2"/>
  </g>
</svg>
