<svg xmlns="http://www.w3.org/2000/svg" width="20" height="20" viewBox="0 0 20 20">
  <g id="Group_1916" data-name="Group 1916" transform="translate(-2 -2)">
    <path id="Path_1798" data-name="Path 1798" d="M3,13h7a.945.945,0,0,1,1,1v7a.945.945,0,0,1-1,1H3a.945.945,0,0,1-1-1V14A.945.945,0,0,1,3,13Z" fill="#a5a6b2" opacity="0.3"/>
    <path id="Path_1799" data-name="Path 1799" d="M7,16H6a.945.945,0,0,1-1-1V13H8v2A.945.945,0,0,1,7,16Z" fill="#a5a6b2"/>
    <path id="Path_1800" data-name="Path 1800" d="M14,13h7a.945.945,0,0,1,1,1v7a.945.945,0,0,1-1,1H14a.945.945,0,0,1-1-1V14A.945.945,0,0,1,14,13Z" fill="#a5a6b2" opacity="0.3"/>
    <path id="Path_1801" data-name="Path 1801" d="M18,16H17a.945.945,0,0,1-1-1V13h3v2A.945.945,0,0,1,18,16Z" fill="#a5a6b2"/>
    <path id="Path_1802" data-name="Path 1802" d="M3,2h7a.945.945,0,0,1,1,1v7a.945.945,0,0,1-1,1H3a.945.945,0,0,1-1-1V3A.945.945,0,0,1,3,2Z" fill="#a5a6b2" opacity="0.3"/>
    <path id="Path_1803" data-name="Path 1803" d="M7,5H6A.945.945,0,0,1,5,4V2H8V4A.945.945,0,0,1,7,5Z" fill="#a5a6b2"/>
    <path id="Path_1804" data-name="Path 1804" d="M14,2h7a.945.945,0,0,1,1,1v7a.945.945,0,0,1-1,1H14a.945.945,0,0,1-1-1V3A.945.945,0,0,1,14,2Z" fill="#a5a6b2" opacity="0.3"/>
    <path id="Path_1805" data-name="Path 1805" d="M18,5H17a.945.945,0,0,1-1-1V2h3V4A.945.945,0,0,1,18,5Z" fill="#a5a6b2"/>
  </g>
</svg>
