<svg xmlns="http://www.w3.org/2000/svg" width="20" height="20" viewBox="0 0 20 20">
  <g id="Group_1919" data-name="Group 1919" transform="translate(-2 -2)">
    <path id="Path_1810" data-name="Path 1810" d="M21,22H3a.945.945,0,0,1-1-1V5A.945.945,0,0,1,3,4H21a.945.945,0,0,1,1,1V21A.945.945,0,0,1,21,22Z" fill="#a5a6b2" opacity="0.3"/>
    <path id="Path_1811" data-name="Path 1811" d="M6,6A.945.945,0,0,1,5,5V3A.945.945,0,0,1,6,2,.945.945,0,0,1,7,3V5A.945.945,0,0,1,6,6Zm5-1V3a.945.945,0,0,0-1-1A.945.945,0,0,0,9,3V5a.945.945,0,0,0,1,1A.945.945,0,0,0,11,5Zm4,0V3a1,1,0,0,0-2,0V5a1,1,0,0,0,2,0Zm4,0V3a1,1,0,0,0-2,0V5a1,1,0,0,0,2,0Z" fill="#a5a6b2"/>
    <path id="Path_1812" data-name="Path 1812" d="M8.8,13.1a1.222,1.222,0,0,0,.9-.3,1.268,1.268,0,0,0,.4-.9A1.032,1.032,0,0,0,9,10.8a1.268,1.268,0,0,0-.6.1,1.768,1.768,0,0,0-.7.7c-.1.2-.2.3-.2.5,0,.1-.1.1-.2.2s-.2.1-.4.1a.52.52,0,0,1-.4-.2.764.764,0,0,1-.2-.5,1.421,1.421,0,0,1,.2-.6,2.651,2.651,0,0,1,.5-.6,1.934,1.934,0,0,1,.9-.5,4.3,4.3,0,0,1,1.2-.2,2.959,2.959,0,0,1,1,.2,5.938,5.938,0,0,1,.8.4,1.275,1.275,0,0,1,.5.7,2.353,2.353,0,0,1,.2.8,1.689,1.689,0,0,1-.3,1,2.7,2.7,0,0,1-.7.8,5.547,5.547,0,0,1,.8.6,1.794,1.794,0,0,1,.5.7,2.353,2.353,0,0,1,.2.8,2.958,2.958,0,0,1-.2,1,4.7,4.7,0,0,1-.6.9,1.7,1.7,0,0,1-1,.6,5.067,5.067,0,0,1-1.3.2,2.768,2.768,0,0,1-1.3-.3,3.49,3.49,0,0,1-.9-.6,2.177,2.177,0,0,1-.5-.8,2.544,2.544,0,0,1-.2-.7.684.684,0,0,1,.7-.7.367.367,0,0,1,.3.1c.1.1.2.1.2.2A3.458,3.458,0,0,0,8,16.9a1.284,1.284,0,0,0,1,.4,1.854,1.854,0,0,0,.7-.2,2.651,2.651,0,0,0,.6-.5,1.077,1.077,0,0,0,.2-.8,1.366,1.366,0,0,0-.4-1.1,1.284,1.284,0,0,0-1-.4H8.4a.694.694,0,0,1-.7-.6c0-.2.1-.3.2-.5s.3-.2.6-.2h.3Zm6.5,4.4V12.2a4.346,4.346,0,0,1-2,1.1.52.52,0,0,1-.4-.2.764.764,0,0,1-.2-.5.52.52,0,0,1,.2-.4,3.217,3.217,0,0,1,.7-.4,3.475,3.475,0,0,0,1.1-.7l.8-.8c.3-.3.4-.5.4-.6s.2-.1.4-.1a.764.764,0,0,1,.5.2,1.165,1.165,0,0,1,.2.7v6.7c0,.8-.3,1.2-.8,1.2a1.421,1.421,0,0,1-.6-.2A.779.779,0,0,1,15.3,17.5Z" fill="#a5a6b2"/>
  </g>
</svg>
