<svg xmlns="http://www.w3.org/2000/svg" width="27" height="23" viewBox="0 0 27 23">
  <g id="arabic" transform="translate(10636 18251)">
    <path id="Subtraction_8" data-name="Subtraction 8" d="M23,23H12a4,4,0,0,1-4-4h7a4,4,0,0,0,4-4V4h4a4,4,0,0,1,4,4V19A4,4,0,0,1,23,23Zm-1.886-7.292h3.118l.536,1.522h1.286l-2.669-7.46H21.971L19.3,17.23h1.275l.536-1.521Zm2.775-1H21.457l1.222-3.462,1.209,3.461Z" transform="translate(-10636 -18251)" fill="#a1a5b7" opacity="0.3"/>
    <path id="Subtraction_6" data-name="Subtraction 6" d="M14,18H4a4,4,0,0,1-4-4V4A4,4,0,0,1,4,0H14a4,4,0,0,1,4,4V14A4,4,0,0,1,14,18ZM9.461,3.506a4.051,4.051,0,0,0-1.374.229,3.42,3.42,0,0,0-1.1.639,2.928,2.928,0,0,0-1,2.252,3.365,3.365,0,0,0,.247,1.284,3.969,3.969,0,0,0,.681,1.1,4.116,4.116,0,0,0-1.088,1.342,3.944,3.944,0,0,0-.105,3.054,2.915,2.915,0,0,0,.784,1.1,3.73,3.73,0,0,0,1.335.725,6.312,6.312,0,0,0,1.919.261,8.39,8.39,0,0,0,1.345-.109,10.264,10.264,0,0,0,1.447-.355V13.349a9.96,9.96,0,0,1-1.436.352,8.324,8.324,0,0,1-1.327.113,4.734,4.734,0,0,1-1.393-.174,2.629,2.629,0,0,1-.885-.45,1.546,1.546,0,0,1-.468-.616,1.773,1.773,0,0,1,.041-1.444,2.329,2.329,0,0,1,.627-.783,5.49,5.49,0,0,1,1.237-.762,12.052,12.052,0,0,1,2.009-.7V7.177c-.539.137-1.062.295-1.552.471a9.838,9.838,0,0,0-1.363.609,1.871,1.871,0,0,1-.461-.717A2.469,2.469,0,0,1,7.423,6.7a1.476,1.476,0,0,1,.156-.718,1.237,1.237,0,0,1,.413-.45A1.693,1.693,0,0,1,8.576,5.3a3.478,3.478,0,0,1,.675-.065,5.663,5.663,0,0,1,.569.029c.177.017.356.038.548.065V3.593A5.075,5.075,0,0,0,9.461,3.506Z" transform="translate(-10636 -18251)" fill="#a1a5b7"/>
  </g>
</svg>
