<svg xmlns="http://www.w3.org/2000/svg" width="27" height="23" viewBox="0 0 27 23">
  <g id="english" transform="translate(10685 18190)">
    <path id="Subtraction_4" data-name="Subtraction 4" d="M23,23H12a4,4,0,0,1-4-4h7a4,4,0,0,0,4-4V4h4a4,4,0,0,1,4,4V19A4,4,0,0,1,23,23Zm-.03-14.233a3.571,3.571,0,0,0-1.208.2,3.048,3.048,0,0,0-.968.561,2.574,2.574,0,0,0-.883,1.979,2.962,2.962,0,0,0,.217,1.128,3.519,3.519,0,0,0,.6.968,3.622,3.622,0,0,0-.956,1.179,3.283,3.283,0,0,0-.319,1.459,3.244,3.244,0,0,0,.226,1.224,2.557,2.557,0,0,0,.688.968,3.259,3.259,0,0,0,1.172.637,5.515,5.515,0,0,0,1.686.229,7.43,7.43,0,0,0,1.183-.1,9.057,9.057,0,0,0,1.271-.312V17.413a8.674,8.674,0,0,1-1.262.309,7.187,7.187,0,0,1-1.166.1,4.126,4.126,0,0,1-1.223-.153,2.27,2.27,0,0,1-.778-.4,1.344,1.344,0,0,1-.41-.542,1.61,1.61,0,0,1-.118-.6,1.635,1.635,0,0,1,.153-.669,2.041,2.041,0,0,1,.551-.689,4.858,4.858,0,0,1,1.086-.67,10.758,10.758,0,0,1,1.765-.611v-1.5c-.475.121-.934.26-1.364.414a8.689,8.689,0,0,0-1.2.535,1.638,1.638,0,0,1-.4-.631,2.149,2.149,0,0,1-.131-.733,1.3,1.3,0,0,1,.138-.631,1.09,1.09,0,0,1,.363-.4,1.5,1.5,0,0,1,.513-.2,3.1,3.1,0,0,1,.593-.058c.155,0,.323.009.5.026s.337.037.482.057V8.842A4.467,4.467,0,0,0,22.971,8.766Z" transform="translate(-10685 -18190)" fill="#a1a5b7" opacity="0.3"/>
    <path id="Subtraction_5" data-name="Subtraction 5" d="M14,18H4a4,4,0,0,1-4-4V4A4,4,0,0,1,4,0H14a4,4,0,0,1,4,4V14A4,4,0,0,1,14,18ZM7.063,11.733h3.859l.663,1.884h1.592l-3.3-9.231H8.124l-3.3,9.231H6.4l.663-1.883ZM10.5,10.5H7.488L9,6.215,10.5,10.5Z" transform="translate(-10685 -18190)" fill="#a1a5b7"/>
  </g>
</svg>
