<svg xmlns="http://www.w3.org/2000/svg" width="19.25" height="21.413" viewBox="0 0 19.25 21.413">
  <g id="Group_6221" data-name="Group 6221" transform="translate(-2 -2)">
    <path id="Path_1830" data-name="Path 1830" d="M13.625,23.413h-4V3.071a.98.98,0,0,1,1-1.071h2a.98.98,0,0,1,1,1.071Z" opacity="0.3"/>
    <path id="Path_1831" data-name="Path 1831" d="M19.625,10h-7V4h7l1.4,2.1a1.718,1.718,0,0,1,0,1.7Z"/>
    <path id="Path_1833" data-name="Path 1833" d="M19.625,10h-7V4h7l1.4,2.1a1.718,1.718,0,0,1,0,1.7Z" transform="translate(0 12)" fill="#6f6f6f"/>
    <path id="Path_1832" data-name="Path 1832" d="M3.625,16h7V10h-7l-1.4,2.1a1.718,1.718,0,0,0,0,1.7Z" fill="#494949"/>
  </g>
</svg>
